<svg width="94" height="94" viewBox="0 0 94 94" fill="none" xmlns="http://www.w3.org/2000/svg">
  <g clip-path="url(#clip0)">
    <path d="M75.5525 32.326C86.733 48.2934 34.4736 84.8857 23.2932 68.9184C15.169 57.3158 20.2816 39.7186 34.7126 29.6139C49.1437 19.5091 67.4283 20.7234 75.5525 32.326Z" fill="#CF7A15" />
    <path d="M54.2192 20.7757C53.5051 20.7999 52.9139 21.4063 52.9795 22.117C53.6826 29.7322 55.9513 43.2834 51.1473 45.5807C47.9778 47.0963 43.3577 30.4243 42.0465 24.9764C41.8591 24.1974 41.0091 23.7786 40.2773 24.1085C38.1638 25.0608 36.0841 26.2176 34.0719 27.5816C33.8705 28.003 33.7107 28.337 33.5093 28.7585C34.2785 37.7187 36.659 55.1738 31.9554 56.4389C29.7797 57.0242 25.337 47.0904 23.8362 41.5345C23.5353 40.4204 22.027 40.2415 21.4725 41.2555C16.3495 50.6251 15.9972 61.248 21.5602 69.1928C36.2898 90.2288 90.4861 50.4038 76.4032 30.7914C71.4731 23.9255 63.2588 20.4696 54.2192 20.7757Z" fill="#F0A346" />
    <path d="M35.862 27.1967C36.5938 26.867 37.4438 27.2856 37.6312 28.0646C38.9424 33.5125 43.3739 40.6928 45.4488 42.675C47.4356 44.5729 49.2409 44.7057 49.2409 44.7057C46.3597 41.235 43.1103 29.4 42.045 24.9739C41.8576 24.1949 41.0076 23.7761 40.2758 24.106C38.1623 25.0582 36.0826 26.215 34.0704 27.5791C33.9609 27.8082 33.8637 28.0116 33.7653 28.2173C34.4599 27.8551 35.1588 27.5136 35.862 27.1967Z" fill="#EB8F21" />
    <path d="M30.018 55.1845C27.7736 52.4061 24.967 45.724 23.8348 41.5326C23.5339 40.4184 22.0257 40.2395 21.4711 41.2535C20.7525 42.5678 20.1278 43.9067 19.6002 45.2594C23.599 53.5895 29.7426 55.3176 30.018 55.1845Z" fill="#EB8F21" />
    <path d="M54.2178 20.7734C53.5038 20.7976 52.9125 21.404 52.9781 22.1147C53.031 22.6871 53.0928 23.2936 53.1597 23.9257C60.8513 24.4781 67.6758 27.8745 71.9878 33.8796C78.7601 43.3108 69.7421 57.4154 56.917 67.1794C71.9498 57.5274 83.929 41.2715 76.4018 30.7889C71.4717 23.9232 63.2574 20.4673 54.2178 20.7734Z" fill="#EB8F21" />
  </g>
  <defs>
    <clipPath id="clip0">
      <rect width="66.9518" height="66.9518" fill="white" transform="translate(0 38.4017) rotate(-35)" />
    </clipPath>
  </defs>
</svg>
