<svg width="101" height="101" viewBox="0 0 101 101" fill="none" xmlns="http://www.w3.org/2000/svg">
  <g clip-path="url(#clip0)">
    <path d="M98.2797 57.9728C98.2797 87.0871 2.99194 87.0871 2.99194 57.9728C2.99194 36.8171 24.3227 19.667 50.6358 19.667C76.9489 19.667 98.2797 36.8171 98.2797 57.9728Z" fill="#CF7A15" />
    <path d="M82.0736 25.5644C81.1792 24.9823 79.9364 25.2177 79.4078 26.1434C73.744 36.063 64.9104 54.5863 57.0648 53.2815C51.8885 52.4205 60.5187 28.0644 63.5817 20.2756C64.0197 19.1619 63.3386 17.9213 62.1605 17.698C58.7589 17.0525 55.2233 16.6861 51.5929 16.6312C50.9855 16.9742 50.5038 17.2461 49.8963 17.5891C43.1611 29.2108 31.1199 52.6064 24.2813 50.1247C21.1179 48.9768 24.1925 33.0169 27.1161 24.9336C27.7024 23.3127 26.0102 21.8016 24.4632 22.5672C10.1682 29.642 0.636597 42.3372 0.636597 56.8235C0.636597 95.1799 101.064 92.8841 100.635 56.8235C100.485 44.1996 93.3957 32.9342 82.0736 25.5644Z" fill="#F0A346" />
    <path d="M54.1127 17.6941C55.2906 17.9177 55.9719 19.1581 55.5339 20.2718C52.4709 28.0605 51.7415 40.642 52.5819 44.8448C53.3868 48.869 55.4817 50.578 55.4817 50.578C54.93 43.8633 61.0934 26.5996 63.5819 20.2716C64.02 19.1579 63.3389 17.9173 62.1608 17.6939C58.7592 17.0485 55.2236 16.6821 51.5932 16.6271C51.2628 16.8137 50.9697 16.9792 50.6731 17.1467C51.8333 17.2986 52.9809 17.4794 54.1127 17.6941V17.6941Z" fill="#EB8F21" />
    <path d="M22.9855 46.9306C22.6197 41.6084 24.9105 31.0286 27.1161 24.9304C27.7024 23.3094 26.0105 21.7984 24.4632 22.564C22.458 23.5563 20.5467 24.6593 18.7423 25.8624C16.4984 39.4799 22.5346 46.8575 22.9855 46.9306V46.9306Z" fill="#EB8F21" />
    <path d="M82.0739 25.5607C81.1795 24.9786 79.9367 25.214 79.4081 26.1398C78.9824 26.8854 78.5385 27.6804 78.0787 28.511C87.0162 35.7764 92.4562 45.7784 92.5874 56.8196C92.7934 74.1605 69.6765 83.6917 45.6204 84.6506C72.2817 85.72 100.865 76.0937 100.636 56.8196C100.486 44.1959 93.396 32.9305 82.0739 25.5607V25.5607Z" fill="#EB8F21" />
  </g>
  <defs>
    <clipPath id="clip0">
      <rect width="100" height="100" fill="white" transform="translate(0.636475 0.680511)" />
    </clipPath>
  </defs>
</svg>
