<svg width="138" height="50" viewBox="0 0 138 50" fill="none" xmlns="http://www.w3.org/2000/svg">
  <path d="M59.0739 25.9705C60.0339 26.2745 60.7859 26.7865 61.3299 27.5065C61.8739 28.2105 62.1459 29.0825 62.1459 30.1225C62.1459 31.5945 61.5699 32.7305 60.4179 33.5305C59.2819 34.3145 57.6179 34.7065 55.4259 34.7065H46.7379V17.9065H54.9459C56.9939 17.9065 58.5619 18.2985 59.6499 19.0825C60.7539 19.8665 61.3059 20.9305 61.3059 22.2745C61.3059 23.0905 61.1059 23.8185 60.7059 24.4585C60.3219 25.0985 59.7779 25.6025 59.0739 25.9705ZM50.6019 20.8345V24.7945H54.4659C55.4259 24.7945 56.1539 24.6265 56.6499 24.2905C57.1459 23.9545 57.3939 23.4585 57.3939 22.8025C57.3939 22.1465 57.1459 21.6585 56.6499 21.3385C56.1539 21.0025 55.4259 20.8345 54.4659 20.8345H50.6019ZM55.1379 31.7785C56.1619 31.7785 56.9299 31.6105 57.4419 31.2745C57.9699 30.9385 58.2339 30.4185 58.2339 29.7145C58.2339 28.3225 57.2019 27.6265 55.1379 27.6265H50.6019V31.7785H55.1379ZM68.4014 23.4985C68.8494 22.8745 69.4494 22.4025 70.2014 22.0825C70.9694 21.7625 71.8494 21.6025 72.8414 21.6025V25.0585C72.4254 25.0265 72.1454 25.0105 72.0014 25.0105C70.9294 25.0105 70.0894 25.3145 69.4814 25.9225C68.8734 26.5145 68.5694 27.4105 68.5694 28.6105V34.7065H64.8254V21.7945H68.4014V23.4985ZM87.5984 28.2985C87.5984 28.3465 87.5744 28.6825 87.5264 29.3065H77.7584C77.9344 30.1065 78.3504 30.7385 79.0064 31.2025C79.6624 31.6665 80.4784 31.8985 81.4544 31.8985C82.1264 31.8985 82.7184 31.8025 83.2304 31.6105C83.7584 31.4025 84.2464 31.0825 84.6944 30.6505L86.6864 32.8105C85.4704 34.2025 83.6944 34.8985 81.3584 34.8985C79.9024 34.8985 78.6144 34.6185 77.4944 34.0585C76.3744 33.4825 75.5104 32.6905 74.9024 31.6825C74.2944 30.6745 73.9904 29.5305 73.9904 28.2505C73.9904 26.9865 74.2864 25.8505 74.8784 24.8425C75.4864 23.8185 76.3104 23.0265 77.3504 22.4665C78.4064 21.8905 79.5824 21.6025 80.8784 21.6025C82.1424 21.6025 83.2864 21.8745 84.3104 22.4185C85.3344 22.9625 86.1344 23.7465 86.7104 24.7705C87.3024 25.7785 87.5984 26.9545 87.5984 28.2985ZM80.9024 24.4345C80.0544 24.4345 79.3424 24.6745 78.7664 25.1545C78.1904 25.6345 77.8384 26.2905 77.7104 27.1225H84.0704C83.9424 26.3065 83.5904 25.6585 83.0144 25.1785C82.4384 24.6825 81.7344 24.4345 80.9024 24.4345ZM94.9475 21.6025C96.9475 21.6025 98.4835 22.0825 99.5555 23.0425C100.627 23.9865 101.163 25.4185 101.163 27.3385V34.7065H97.6595V33.0985C96.9555 34.2985 95.6435 34.8985 93.7235 34.8985C92.7315 34.8985 91.8675 34.7305 91.1315 34.3945C90.4115 34.0585 89.8595 33.5945 89.4755 33.0025C89.0915 32.4105 88.8995 31.7385 88.8995 30.9865C88.8995 29.7865 89.3475 28.8425 90.2435 28.1545C91.1555 27.4665 92.5555 27.1225 94.4435 27.1225H97.4195C97.4195 26.3065 97.1715 25.6825 96.6755 25.2505C96.1795 24.8025 95.4355 24.5785 94.4435 24.5785C93.7555 24.5785 93.0755 24.6905 92.4035 24.9145C91.7475 25.1225 91.1875 25.4105 90.7235 25.7785L89.3795 23.1625C90.0835 22.6665 90.9235 22.2825 91.8995 22.0105C92.8915 21.7385 93.9075 21.6025 94.9475 21.6025ZM94.6595 32.3785C95.2995 32.3785 95.8675 32.2345 96.3635 31.9465C96.8595 31.6425 97.2115 31.2025 97.4195 30.6265V29.3065H94.8515C93.3155 29.3065 92.5475 29.8105 92.5475 30.8185C92.5475 31.2985 92.7315 31.6825 93.0995 31.9705C93.4835 32.2425 94.0035 32.3785 94.6595 32.3785ZM117.845 16.8985V34.7065H114.269V33.2185C113.341 34.3385 111.997 34.8985 110.237 34.8985C109.021 34.8985 107.917 34.6265 106.925 34.0825C105.949 33.5385 105.181 32.7625 104.621 31.7545C104.061 30.7465 103.781 29.5785 103.781 28.2505C103.781 26.9225 104.061 25.7545 104.621 24.7465C105.181 23.7385 105.949 22.9625 106.925 22.4185C107.917 21.8745 109.021 21.6025 110.237 21.6025C111.885 21.6025 113.173 22.1225 114.101 23.1625V16.8985H117.845ZM110.885 31.8265C111.829 31.8265 112.613 31.5065 113.237 30.8665C113.861 30.2105 114.173 29.3385 114.173 28.2505C114.173 27.1625 113.861 26.2985 113.237 25.6585C112.613 25.0025 111.829 24.6745 110.885 24.6745C109.925 24.6745 109.133 25.0025 108.509 25.6585C107.885 26.2985 107.573 27.1625 107.573 28.2505C107.573 29.3385 107.885 30.2105 108.509 30.8665C109.133 31.5065 109.925 31.8265 110.885 31.8265ZM134.126 21.7945L128.294 35.4985C127.702 36.9865 126.966 38.0345 126.086 38.6425C125.222 39.2505 124.174 39.5545 122.942 39.5545C122.27 39.5545 121.606 39.4505 120.95 39.2425C120.294 39.0345 119.758 38.7465 119.342 38.3785L120.71 35.7145C120.998 35.9705 121.326 36.1705 121.694 36.3145C122.078 36.4585 122.454 36.5305 122.822 36.5305C123.334 36.5305 123.75 36.4025 124.07 36.1465C124.39 35.9065 124.678 35.4985 124.934 34.9225L124.982 34.8025L119.39 21.7945H123.254L126.878 30.5545L130.526 21.7945H134.126Z" fill="#272727" />
  <g clip-path="url(#clip0)">
    <path d="M40.5126 17.334C46.5077 25.896 18.4854 45.5174 12.4902 36.9555C8.13385 30.734 10.8753 21.298 18.6135 15.8797C26.3517 10.4613 36.1562 11.1125 40.5126 17.334Z" fill="#CF7A15" />
    <path d="M29.073 11.14C28.6902 11.1529 28.3731 11.4781 28.4083 11.8592C28.7853 15.9426 30.0018 23.209 27.4259 24.4408C25.7263 25.2535 23.2489 16.3137 22.5458 13.3925C22.4453 12.9747 21.9896 12.7501 21.5971 12.9271C20.4639 13.4377 19.3487 14.058 18.2697 14.7894C18.1617 15.0154 18.076 15.1945 17.968 15.4205C18.3805 20.2251 19.6569 29.5848 17.1348 30.2632C15.9681 30.577 13.5859 25.2504 12.7811 22.2712C12.6198 21.6738 11.811 21.5779 11.5137 22.1216C8.76663 27.1458 8.57773 32.8419 11.5607 37.1021C19.459 48.382 48.52 27.0271 40.9685 16.5105C38.3249 12.8289 33.9203 10.9758 29.073 11.14Z" fill="#F0A346" />
    <path d="M19.2298 14.5835C19.6222 14.4067 20.078 14.6312 20.1785 15.0489C20.8816 17.9702 23.2578 21.8204 24.3704 22.8833C25.4358 23.901 26.4038 23.9722 26.4038 23.9722C24.8589 22.1111 23.1165 15.765 22.5453 13.3916C22.4448 12.9739 21.989 12.7493 21.5965 12.9262C20.4633 13.4369 19.3481 14.0571 18.2691 14.7886C18.2104 14.9114 18.1583 15.0205 18.1055 15.1308C18.478 14.9366 18.8527 14.7534 19.2298 14.5835Z" fill="#EB8F21" />
    <path d="M16.0962 29.591C14.8927 28.1011 13.3877 24.5181 12.7806 22.2705C12.6193 21.6731 11.8106 21.5772 11.5132 22.1209C11.1278 22.8257 10.7929 23.5436 10.51 24.269C12.6542 28.7357 15.9485 29.6623 16.0962 29.591Z" fill="#EB8F21" />
    <path d="M29.0725 11.1392C28.6896 11.1522 28.3726 11.4774 28.4078 11.8584C28.4361 12.1654 28.4693 12.4906 28.5051 12.8295C32.6295 13.1258 36.2889 14.947 38.6011 18.167C42.2325 23.2242 37.3969 30.7873 30.5199 36.0229C38.5807 30.8474 45.0042 22.1307 40.968 16.5097C38.3244 12.8282 33.9197 10.9751 29.0725 11.1392Z" fill="#EB8F21" />
  </g>
  <defs>
    <clipPath id="clip0">
      <rect width="35.9008" height="35.9008" fill="white" transform="translate(0 20.5918) rotate(-35)" />
    </clipPath>
  </defs>
</svg>
